<svg width="3125" height="978" viewBox="0 0 3125 978" fill="none" xmlns="http://www.w3.org/2000/svg">
<rect width="3125" height="978" fill="#1E1E1E"/>
<rect width="3125" height="978" fill="white"/>
<path d="M1189.8 450.4C1192.2 454.8 1194.93 460.267 1198 466.8C1201.2 473.2 1204.47 480.2 1207.8 487.8C1211.27 495.267 1214.67 502.933 1218 510.8C1221.33 518.667 1224.47 526.067 1227.4 533C1230.33 526.067 1233.47 518.667 1236.8 510.8C1240.13 502.933 1243.47 495.267 1246.8 487.8C1250.27 480.2 1253.53 473.2 1256.6 466.8C1259.8 460.267 1262.6 454.8 1265 450.4H1293.4C1294.73 459.6 1295.93 469.933 1297 481.4C1298.2 492.733 1299.2 504.6 1300 517C1300.93 529.267 1301.73 541.6 1302.4 554C1303.2 566.4 1303.87 578.067 1304.4 589H1274C1273.6 575.533 1273.07 560.867 1272.4 545C1271.73 529.133 1270.73 513.133 1269.4 497C1267 502.6 1264.33 508.8 1261.4 515.6C1258.47 522.4 1255.53 529.2 1252.6 536C1249.8 542.8 1247.07 549.333 1244.4 555.6C1241.73 561.733 1239.47 567 1237.6 571.4H1215.8C1213.93 567 1211.67 561.733 1209 555.6C1206.33 549.333 1203.53 542.8 1200.6 536C1197.8 529.2 1194.93 522.4 1192 515.6C1189.07 508.8 1186.4 502.6 1184 497C1182.67 513.133 1181.67 529.133 1181 545C1180.33 560.867 1179.8 575.533 1179.4 589H1149C1149.53 578.067 1150.13 566.4 1150.8 554C1151.6 541.6 1152.4 529.267 1153.2 517C1154.13 504.6 1155.13 492.733 1156.2 481.4C1157.4 469.933 1158.67 459.6 1160 450.4H1189.8ZM1425.29 589C1423.83 584.2 1422.16 579.267 1420.29 574.2C1418.56 569.133 1416.83 564.067 1415.09 559H1361.09C1359.36 564.067 1357.56 569.133 1355.69 574.2C1353.96 579.267 1352.36 584.2 1350.89 589H1318.49C1323.69 574.067 1328.63 560.267 1333.29 547.6C1337.96 534.933 1342.49 523 1346.89 511.8C1351.43 500.6 1355.83 490 1360.09 480C1364.49 469.867 1369.03 460 1373.69 450.4H1403.49C1408.03 460 1412.49 469.867 1416.89 480C1421.29 490 1425.69 500.6 1430.09 511.8C1434.63 523 1439.23 534.933 1443.89 547.6C1448.56 560.267 1453.49 574.067 1458.69 589H1425.29ZM1387.89 481.8C1387.23 483.8 1386.23 486.533 1384.89 490C1383.56 493.467 1382.03 497.467 1380.29 502C1378.56 506.533 1376.63 511.533 1374.49 517C1372.49 522.467 1370.43 528.2 1368.29 534.2H1407.69C1405.56 528.2 1403.49 522.467 1401.49 517C1399.49 511.533 1397.56 506.533 1395.69 502C1393.96 497.467 1392.43 493.467 1391.09 490C1389.76 486.533 1388.69 483.8 1387.89 481.8ZM1517.23 448.8C1538.03 448.8 1553.97 452.533 1565.03 460C1576.1 467.333 1581.63 478.8 1581.63 494.4C1581.63 504.133 1579.37 512.067 1574.83 518.2C1570.43 524.2 1564.03 528.933 1555.63 532.4C1558.43 535.867 1561.37 539.867 1564.43 544.4C1567.5 548.8 1570.5 553.467 1573.43 558.4C1576.5 563.2 1579.43 568.267 1582.23 573.6C1585.03 578.8 1587.63 583.933 1590.03 589H1555.03C1552.5 584.467 1549.9 579.867 1547.23 575.2C1544.7 570.533 1542.03 566 1539.23 561.6C1536.57 557.2 1533.9 553.067 1531.23 549.2C1528.57 545.2 1525.9 541.6 1523.23 538.4H1507.83V589H1476.63V452.4C1483.43 451.067 1490.43 450.133 1497.63 449.6C1504.97 449.067 1511.5 448.8 1517.23 448.8ZM1519.03 475.4C1516.77 475.4 1514.7 475.467 1512.83 475.6C1511.1 475.733 1509.43 475.867 1507.83 476V513.6H1516.63C1528.37 513.6 1536.77 512.133 1541.83 509.2C1546.9 506.267 1549.43 501.267 1549.43 494.2C1549.43 487.4 1546.83 482.6 1541.63 479.8C1536.57 476.867 1529.03 475.4 1519.03 475.4ZM1691.83 589C1689.03 584.467 1685.7 579.6 1681.83 574.4C1678.1 569.067 1673.96 563.8 1669.43 558.6C1665.03 553.267 1660.43 548.2 1655.63 543.4C1650.83 538.467 1646.03 534.133 1641.23 530.4V589H1610.03V450.4H1641.23V502.8C1649.36 494.267 1657.5 485.4 1665.63 476.2C1673.9 466.867 1681.56 458.267 1688.63 450.4H1725.63C1716.16 461.6 1706.63 472.4 1697.03 482.8C1687.56 493.2 1677.56 503.667 1667.03 514.2C1678.1 523.4 1688.76 534.333 1699.03 547C1709.43 559.667 1719.36 573.667 1728.83 589H1691.83ZM1746.75 589V450.4H1840.35V476.6H1777.95V503.8H1833.35V529.4H1777.95V562.8H1844.95V589H1746.75ZM1970.84 450.4V477H1929.04V589H1897.84V477H1856.04V450.4H1970.84ZM1990.89 450.4H2022.09V589H1990.89V450.4ZM2147.17 589C2138.24 573.133 2128.57 557.467 2118.17 542C2107.77 526.533 2096.71 511.933 2084.97 498.2V589H2054.17V450.4H2079.57C2083.97 454.8 2088.84 460.2 2094.17 466.6C2099.51 473 2104.91 479.867 2110.37 487.2C2115.97 494.4 2121.51 501.933 2126.97 509.8C2132.44 517.533 2137.57 525 2142.37 532.2V450.4H2173.37V589H2147.17ZM2272.94 474.4C2258.41 474.4 2247.88 478.467 2241.34 486.6C2234.94 494.6 2231.74 505.6 2231.74 519.6C2231.74 526.4 2232.54 532.6 2234.14 538.2C2235.74 543.667 2238.14 548.4 2241.34 552.4C2244.54 556.4 2248.54 559.533 2253.34 561.8C2258.14 563.933 2263.74 565 2270.14 565C2273.61 565 2276.54 564.933 2278.94 564.8C2281.48 564.667 2283.68 564.4 2285.54 564V515.8H2316.74V584.4C2313.01 585.867 2307.01 587.4 2298.74 589C2290.48 590.733 2280.28 591.6 2268.14 591.6C2257.74 591.6 2248.28 590 2239.74 586.8C2231.34 583.6 2224.14 578.933 2218.14 572.8C2212.14 566.667 2207.48 559.133 2204.14 550.2C2200.94 541.267 2199.34 531.067 2199.34 519.6C2199.34 508 2201.14 497.733 2204.74 488.8C2208.34 479.867 2213.28 472.333 2219.54 466.2C2225.81 459.933 2233.14 455.2 2241.54 452C2250.08 448.8 2259.14 447.2 2268.74 447.2C2275.28 447.2 2281.14 447.667 2286.34 448.6C2291.68 449.4 2296.21 450.4 2299.94 451.6C2303.81 452.667 2306.94 453.8 2309.34 455C2311.88 456.2 2313.68 457.133 2314.74 457.8L2305.74 482.8C2301.48 480.533 2296.54 478.6 2290.94 477C2285.48 475.267 2279.48 474.4 2272.94 474.4ZM2496.62 450.4V477H2454.82V589H2423.62V477H2381.82V450.4H2496.62ZM2516.67 589V450.4H2610.27V476.6H2547.87V503.8H2603.27V529.4H2547.87V562.8H2614.87V589H2516.67ZM2730.76 589C2729.29 584.2 2727.63 579.267 2725.76 574.2C2724.03 569.133 2722.29 564.067 2720.56 559H2666.56C2664.83 564.067 2663.03 569.133 2661.16 574.2C2659.43 579.267 2657.83 584.2 2656.36 589H2623.96C2629.16 574.067 2634.09 560.267 2638.76 547.6C2643.43 534.933 2647.96 523 2652.36 511.8C2656.89 500.6 2661.29 490 2665.56 480C2669.96 469.867 2674.49 460 2679.16 450.4H2708.96C2713.49 460 2717.96 469.867 2722.36 480C2726.76 490 2731.16 500.6 2735.56 511.8C2740.09 523 2744.69 534.933 2749.36 547.6C2754.03 560.267 2758.96 574.067 2764.16 589H2730.76ZM2693.36 481.8C2692.69 483.8 2691.69 486.533 2690.36 490C2689.03 493.467 2687.49 497.467 2685.76 502C2684.03 506.533 2682.09 511.533 2679.96 517C2677.96 522.467 2675.89 528.2 2673.76 534.2H2713.16C2711.03 528.2 2708.96 522.467 2706.96 517C2704.96 511.533 2703.03 506.533 2701.16 502C2699.43 497.467 2697.89 493.467 2696.56 490C2695.23 486.533 2694.16 483.8 2693.36 481.8ZM2818.9 450.4C2821.3 454.8 2824.03 460.267 2827.1 466.8C2830.3 473.2 2833.57 480.2 2836.9 487.8C2840.37 495.267 2843.77 502.933 2847.1 510.8C2850.43 518.667 2853.57 526.067 2856.5 533C2859.43 526.067 2862.57 518.667 2865.9 510.8C2869.23 502.933 2872.57 495.267 2875.9 487.8C2879.37 480.2 2882.63 473.2 2885.7 466.8C2888.9 460.267 2891.7 454.8 2894.1 450.4H2922.5C2923.83 459.6 2925.03 469.933 2926.1 481.4C2927.3 492.733 2928.3 504.6 2929.1 517C2930.03 529.267 2930.83 541.6 2931.5 554C2932.3 566.4 2932.97 578.067 2933.5 589H2903.1C2902.7 575.533 2902.17 560.867 2901.5 545C2900.83 529.133 2899.83 513.133 2898.5 497C2896.1 502.6 2893.43 508.8 2890.5 515.6C2887.57 522.4 2884.63 529.2 2881.7 536C2878.9 542.8 2876.17 549.333 2873.5 555.6C2870.83 561.733 2868.57 567 2866.7 571.4H2844.9C2843.03 567 2840.77 561.733 2838.1 555.6C2835.43 549.333 2832.63 542.8 2829.7 536C2826.9 529.2 2824.03 522.4 2821.1 515.6C2818.17 508.8 2815.5 502.6 2813.1 497C2811.77 513.133 2810.77 529.133 2810.1 545C2809.43 560.867 2808.9 575.533 2808.5 589H2778.1C2778.63 578.067 2779.23 566.4 2779.9 554C2780.7 541.6 2781.5 529.267 2782.3 517C2783.23 504.6 2784.23 492.733 2785.3 481.4C2786.5 469.933 2787.77 459.6 2789.1 450.4H2818.9Z" fill="#5D596C"/>
<path d="M363 150H856V274H363V150Z" fill="#7367F0"/>
<path d="M426 704H1041V828H426V704Z" fill="#7367F0"/>
<path d="M549 542.946L975.976 311L1035.17 419.961L608.191 651.906L549 542.946Z" fill="#7367F0"/>
<path d="M667.167 542.946L240.191 311L181 419.961L607.976 651.906L667.167 542.946Z" fill="#7367F0"/>
<path d="M548 545L548 150L671 150V545H548Z" fill="#7367F0"/>
<path d="M179 828L179 275.5L302 342L302 828H179Z" fill="#7367F0"/>
<path d="M1041 828L1041 275.5L918 342V828H1041Z" fill="#7367F0"/>
<path d="M363 307.5V150L487 150V373L363 307.5Z" fill="#7367F0"/>
<path d="M856 307.5V150L732 150V373L856 307.5Z" fill="#7367F0"/>
</svg>
